@startuml inline_umlgraph_1.png
header
Main flow
endheader
start
if (Button_is_Pressed) then (yes)
 :Config mode;
else (no)
 :Main mode;
endif
:Lock;
end
@enduml
@startuml inline_umlgraph_2.png
header
 Configuration flow
endheader
start
:Brighness;
:Mode selection\nGreen = PitStick\nRed = Slalom;
if (Mode) then (Slalom)
 :Min random value (*.1s)\nWhite;
 :Max random value (*.1s)\nGreen;
else (PitStick)
 :Total pit+lap time (s)\nOrange;
 :T1(s)\nYellow;
 :T2(s)\nBlue;
endif
:Save;
:Lock;
end
@enduml
@startuml inline_umlgraph_3.png
header
 Workflow for PitStick mode
endheader
[*] --> Green_Blinking_Phase
Green_Blinking_Phase --> Yellow_Traffic_Light
Yellow_Traffic_Light : Phase duration is 5s\nDriver must start from pitlane at the end of the phase\nThe end of the phase corresponds T1 time before pitstop+lap end
Yellow_Traffic_Light --> 2_Green_Blinks
2_Green_Blinks --> Going_To_Intermediate_Point
Going_To_Intermediate_Point --> Intermediate_Point
Intermediate_Point : 2 red blinks. Driver must be at intermediate point\nat the start of the first blink.\nThis time is T2 before end of the sequence
Intermediate_Point --> Going_To_Start_Finish
Going_To_Start_Finish : Knowing if driver was early or late at the\nintermediate point he must speed-up or slow down here
Going_To_Start_Finish --> Red_Traffic_Light
Red_Traffic_Light : This phase starts at 5s before ideal time(TSeq)\ncrossing start-finish line
Red_Traffic_Light --> 2_Green_Blinks_2
2_Green_Blinks_2 : The pilot must cross start-finish line at the first blink.
2_Green_Blinks_2 --> Lock
Lock --> [*]
@enduml
@startuml inline_umlgraph_4.png
header
Slalom Traffic Light flow
endheader
[*] --> Yellow_Pre_Phase
Yellow_Pre_Phase --> Main_Traffic_Light_Mode
Main_Traffic_Light_Mode : Red lights go on one-by one.\nDriver must strat at the moment (random) all of them go off.
Main_Traffic_Light_Mode --> Vbat_Show
Vbat_Show : At the end of the previuos phase+5s 2 upper leds\nshow the battery state
Vbat_Show --> Lock
Lock --> [*]
@enduml
@startuml inline_umlgraph_5.png
header
Stop-and-go mode flow
endheader
[*] --> Red_Phase
Red_Phase : Duration is taken from configuration phase.
Red_Phase --> Green_Phase
Green_Phase : Duration is 10 sec
Green_Phase --> Vbat_Show
Vbat_Show : At the end of the previous phase+5s 2 upper leds\nshow the battery state
Vbat_Show --> Lock
Lock --> [*]
@enduml
@startuml inline_umlgraph_6.png
header
Safety Car mode
endheader
[*] --> Vbat_Show
Vbat_Show : Duration is 1 sec
Vbat_Show --> Blinking_Mode
Blinking_Mode : Endless blinking safety car pattern
Blinking_Mode --> [*]
@enduml
